
<svg t="1611890568920" width="21" height="21" style="transform: rotate(180deg);" viewBox="0 0 1024 1024" version="1.1" xmlns="http://www.w3.org/2000/svg" p-id="13663" xmlns:xlink="http://www.w3.org/1999/xlink" width="200" height="200"><defs><style type="text/css"></style></defs><path d="M128 256a42.666667 42.666667 0 0 1 42.666667-42.666667h384a42.666667 42.666667 0 1 1 0 85.333334H170.666667a42.666667 42.666667 0 0 1-42.666667-42.666667zM128 512a42.666667 42.666667 0 0 1 42.666667-42.666667h384a42.666667 42.666667 0 1 1 0 85.333334H170.666667a42.666667 42.666667 0 0 1-42.666667-42.666667zM128 768a42.666667 42.666667 0 0 1 42.666667-42.666667h384a42.666667 42.666667 0 1 1 0 85.333334H170.666667a42.666667 42.666667 0 0 1-42.666667-42.666667zM926.165333 311.168a42.666667 42.666667 0 0 1 0 60.330667L785.664 512l140.501333 140.501333a42.666667 42.666667 0 1 1-60.330666 60.330667l-170.666667-170.666667a42.666667 42.666667 0 0 1 0-60.330666l170.666667-170.666667a42.666667 42.666667 0 0 1 60.330666 0z" p-id="13664"></path></svg>