<svg height="20px" width="20px" t="1572104143510" class="icon" viewBox="0 0 1024 1024" version="1.1" xmlns="http://www.w3.org/2000/svg" p-id="3430" width="200" height="200"><path d="M960 174.08c-27.648-162.816-138.24-160.256-262.144-129.024-171.008 48.128-90.112 241.152-15.36 392.704 35.84 70.656 17.408 108.544 17.408 108.544l260.096-8.704s-3.584-104.448 2.56-211.968c3.072-49.664 6.656-98.304-2.56-151.552zM342.528 281.088C218.112 249.856 107.52 246.784 79.872 410.112c-9.216 52.736-5.632 101.376-3.072 151.04 6.144 107.52 2.56 211.968 2.56 211.968l261.12 8.704s-18.432-37.888 17.408-108.544c74.752-151.04 156.16-344.064-15.36-392.192zM76.8 826.88c30.208 206.848 169.472 166.4 237.568 141.824 68.608-25.088 30.208-141.824 30.208-141.824H76.8zM726.016 733.184c68.096 24.576 206.848 65.024 237.056-141.824h-267.264c-0.512 0-38.4 116.736 30.208 141.824z" p-id="3431"></path></svg>
